<svg width="80" height="56" viewBox="0 0 80 56" fill="none" xmlns="http://www.w3.org/2000/svg">
<path d="M54.3896 1.72448L75.8753 23.2101C78.0442 25.3826 79.4455 28.2031 79.8666 31.2439C80.2877 34.2847 79.7057 37.3798 78.2088 40.06C76.7119 42.7401 74.3819 44.859 71.572 46.0952C68.7621 47.3315 65.6257 47.6177 62.6385 46.9104V47.7231C62.6385 52.0913 59.0931 55.6367 54.7198 55.6367H45.8716V49.3027C45.8716 46.5853 44.4239 44.3097 42.4684 42.8012C40.3795 41.232 37.8327 40.3932 35.2202 40.4139H28.0938C27.4203 40.4139 26.7743 40.6814 26.298 41.1577C25.8217 41.634 25.5542 42.28 25.5542 42.9535C25.5542 43.6271 25.8217 44.2731 26.298 44.7494C26.7743 45.2257 27.4203 45.4932 28.0938 45.4932H35.2151C36.871 45.4932 38.344 46.0367 39.3548 46.8139C40.3655 47.5961 40.7871 48.49 40.7871 49.3027V55.6367H18.2297C13.8615 55.6367 10.3161 52.0913 10.3161 47.7231V37.3967C10.3161 37.092 10.3212 36.7923 10.3364 36.4977C8.40427 36.4193 6.52883 35.8223 4.9069 34.7693C3.28498 33.7163 1.97638 32.2461 1.11841 30.5131C0.260448 28.7801 -0.115246 26.8481 0.0307528 24.9199C0.176751 22.9916 0.83906 21.1382 1.94818 19.5542C3.0573 17.9701 4.57234 16.7138 6.33432 15.917C8.0963 15.1202 10.0403 14.8124 11.9622 15.0258C13.8842 15.2392 15.7132 15.9659 17.2575 17.1298C18.8018 18.2937 20.0043 19.8518 20.7389 21.6406C23.0043 20.6552 25.5237 20.1168 28.1751 20.1168H44.876C47.2633 20.1168 49.5439 20.5841 51.6265 21.4374L52.0227 20.7568C52.5763 19.7917 53.196 18.7047 53.9376 17.9428L46.0544 10.0597C44.9491 8.95505 44.3279 7.45656 44.3274 5.89388C44.3272 5.12012 44.4793 4.35389 44.7752 3.63894C45.0711 2.92399 45.5049 2.27432 46.0519 1.72702C46.5988 1.17973 47.2482 0.745519 47.963 0.449196C48.6778 0.152873 49.4439 0.000236105 50.2177 2.74066e-07C51.7804 -0.000476007 53.2792 0.619838 54.3845 1.72448H54.3896Z" fill="#053B45"/>
</svg>
