<svg width="80" height="80" viewBox="0 0 80 80" fill="none" xmlns="http://www.w3.org/2000/svg">
<path d="M53.333 48.8868C53.333 61.1599 47.3642 71.1086 39.9999 71.1086C32.6356 71.1086 26.6669 61.1599 26.6669 48.8868C26.6669 36.6137 32.6356 26.665 39.9999 26.665C47.3642 26.665 53.333 36.6137 53.333 48.8868Z" fill="#053B45"/>
<path fill-rule="evenodd" clip-rule="evenodd" d="M59.564 0.0433315C60.1419 -0.072475 60.7421 0.0460168 61.2326 0.37274C61.7231 0.699463 62.0637 1.20765 62.1795 1.78552L65.5128 18.4518C65.5747 18.7621 65.5697 19.0819 65.498 19.39C65.4263 19.6981 65.2897 19.9874 65.0973 20.2385L50.6531 39.127C50.4786 39.3661 50.258 39.5679 50.0044 39.7206C49.7508 39.8733 49.4692 39.9737 49.1762 40.0161C48.8832 40.0584 48.5847 40.0418 48.2982 39.9672C48.0118 39.8926 47.7431 39.7615 47.508 39.5816C47.2729 39.4017 47.0761 39.1767 46.9291 38.9197C46.7822 38.6627 46.6881 38.3789 46.6524 38.0851C46.6166 37.7912 46.64 37.4931 46.721 37.2084C46.802 36.9237 46.9392 36.658 47.1243 36.427L60.9574 18.3385L57.8196 2.65661C57.7045 2.07876 57.8236 1.47885 58.1508 0.988794C58.4779 0.498739 58.9862 0.158659 59.564 0.0433315V0.0433315ZM20.436 0.0433315C19.8581 -0.072475 19.2579 0.0460168 18.7674 0.37274C18.2769 0.699463 17.9363 1.20765 17.8205 1.78552L14.4872 18.4518C14.4253 18.7621 14.4303 19.0819 14.502 19.39C14.5737 19.6981 14.7103 19.9874 14.9027 20.2385L29.3469 39.127C29.5214 39.3661 29.742 39.5679 29.9956 39.7206C30.2492 39.8733 30.5308 39.9737 30.8238 40.0161C31.1168 40.0584 31.4153 40.0418 31.7018 39.9672C31.9882 39.8926 32.2569 39.7615 32.492 39.5816C32.7271 39.4017 32.9239 39.1767 33.0709 38.9197C33.2178 38.6627 33.3119 38.3789 33.3476 38.0851C33.3834 37.7912 33.36 37.4931 33.279 37.2084C33.198 36.9237 33.0608 36.658 32.8757 36.427L19.0426 18.3385L22.1804 2.65661C22.2955 2.07876 22.1764 1.47885 21.8492 0.988794C21.5221 0.498739 21.0138 0.158659 20.436 0.0433315V0.0433315ZM79.3325 25.0762C79.7536 25.4884 79.9936 26.0511 79.9999 26.6403C80.0061 27.2296 79.7781 27.7972 79.3659 28.2183L69.5883 38.2181C69.3628 38.4489 69.0898 38.6278 68.7883 38.7425L54.1219 44.298C53.5709 44.5072 52.9593 44.489 52.4217 44.2472C51.8841 44.0055 51.4646 43.5602 51.2553 43.0091C51.0461 42.4581 51.0644 41.8465 51.3061 41.3089C51.5478 40.7713 51.9931 40.3517 52.5442 40.1425L66.7528 34.7604L76.1882 25.1117C76.6001 24.6904 77.1626 24.4499 77.7519 24.4432C78.3411 24.4366 78.9089 24.6642 79.3303 25.0762H79.3325ZM70.7794 79.8573C71.0527 79.7548 71.3032 79.5994 71.5165 79.4001C71.7297 79.2007 71.9017 78.9613 72.0224 78.6955C72.1431 78.4297 72.2103 78.1427 72.22 77.851C72.2298 77.5592 72.182 77.2684 72.0793 76.9951L65.4128 59.2177C65.2279 58.7239 64.8735 58.312 64.4128 58.0555L54.413 52.5C53.8979 52.2136 53.2902 52.1435 52.7234 52.3052C52.1566 52.4669 51.6773 52.8471 51.3909 53.3622C51.1045 53.8773 51.0344 54.4851 51.1961 55.0519C51.3578 55.6187 51.738 56.098 52.2531 56.3844L61.5396 61.5443L67.9172 78.5551C68.0195 78.8286 68.1747 79.0793 68.3739 79.2928C68.5732 79.5063 68.8126 79.6785 69.0784 79.7994C69.3442 79.9204 69.6312 79.9877 69.9231 79.9976C70.215 80.0076 70.506 79.9599 70.7794 79.8573V79.8573ZM74.6726 59.5488C75.1424 59.1935 75.4519 58.6663 75.5332 58.0829C75.6144 57.4996 75.4608 56.9079 75.106 56.4377L67.5505 46.4379C67.3234 46.1367 67.0232 45.8982 66.6784 45.745C66.3335 45.5918 65.9553 45.529 65.5795 45.5624L53.1353 46.6735C52.8429 46.6973 52.5582 46.7787 52.2975 46.9131C52.0368 47.0474 51.8052 47.2321 51.6162 47.4564C51.4272 47.6806 51.2845 47.9401 51.1963 48.2199C51.108 48.4996 51.076 48.794 51.1021 49.0861C51.1282 49.3783 51.2119 49.6624 51.3484 49.922C51.4848 50.1816 51.6713 50.4117 51.897 50.5989C52.1228 50.7861 52.3834 50.9268 52.6638 51.0128C52.9442 51.0988 53.2389 51.1285 53.5308 51.1001L64.7462 50.1001L71.5594 59.1155C71.9146 59.5852 72.4419 59.8947 73.0252 59.976C73.6085 60.0572 74.2003 59.9036 74.6704 59.5488H74.6726ZM0.667467 25.0762C0.246422 25.4884 0.0063761 26.0511 0.000125192 26.6403C-0.00612571 27.2296 0.22193 27.7972 0.634134 28.2183L10.4117 38.2181C10.6384 38.4492 10.9117 38.6292 11.2117 38.7425L25.8781 44.298C26.4291 44.5072 27.0407 44.489 27.5783 44.2472C28.1159 44.0055 28.5355 43.5602 28.7447 43.0091C28.9539 42.4581 28.9356 41.8465 28.6939 41.3089C28.4522 40.7713 28.0069 40.3517 27.4558 40.1425L13.2472 34.7604L3.81185 25.1117C3.39986 24.6904 2.83738 24.4499 2.24813 24.4432C1.65888 24.4366 1.09111 24.6642 0.669689 25.0762H0.667467ZM9.22063 79.8573C8.94728 79.7548 8.69682 79.5994 8.48354 79.4001C8.27026 79.2007 8.09834 78.9613 7.97762 78.6955C7.8569 78.4297 7.78973 78.1427 7.77995 77.851C7.77018 77.5592 7.81799 77.2684 7.92065 76.9951L14.5872 59.2177C14.7721 58.7239 15.1265 58.312 15.5872 58.0555L25.587 52.5C25.842 52.3582 26.1225 52.268 26.4124 52.2346C26.7023 52.2012 26.996 52.2252 27.2766 52.3052C27.5572 52.3853 27.8194 52.5198 28.048 52.7012C28.2766 52.8826 28.4673 53.1072 28.6091 53.3622C28.7509 53.6173 28.8411 53.8978 28.8746 54.1877C28.908 54.4776 28.884 54.7713 28.8039 55.0519C28.7239 55.3325 28.5893 55.5946 28.4079 55.8233C28.2266 56.0519 28.002 56.2426 27.7469 56.3844L18.4604 61.5443L12.0828 78.5551C11.9805 78.8286 11.8253 79.0793 11.6261 79.2928C11.4268 79.5063 11.1874 79.6785 10.9216 79.7994C10.6558 79.9204 10.3688 79.9877 10.0769 79.9976C9.78501 80.0076 9.49405 79.9599 9.22063 79.8573ZM5.32737 59.5488C4.85761 59.1935 4.54809 58.6663 4.46684 58.0829C4.38559 57.4996 4.53924 56.9079 4.89405 56.4377L12.4495 46.4379C12.6766 46.1367 12.9768 45.8982 13.3216 45.745C13.6665 45.5918 14.0447 45.529 14.4205 45.5624L26.8647 46.6735C27.1571 46.6973 27.4418 46.7787 27.7025 46.9131C27.9632 47.0474 28.1948 47.2321 28.3838 47.4564C28.5728 47.6806 28.7155 47.9401 28.8037 48.2199C28.892 48.4996 28.924 48.794 28.8979 49.0861C28.8718 49.3783 28.7881 49.6624 28.6516 49.922C28.5152 50.1816 28.3287 50.4117 28.103 50.5989C27.8772 50.7861 27.6166 50.9268 27.3362 51.0128C27.0558 51.0988 26.7611 51.1285 26.4692 51.1001L15.2516 50.1001L8.44064 59.1155C8.08538 59.5852 7.55815 59.8947 6.9748 59.976C6.39145 60.0572 5.79971 59.9036 5.32959 59.5488H5.32737ZM35.5556 18.8874C36.145 18.8874 36.7102 19.1215 37.127 19.5383C37.5437 19.955 37.7778 20.5202 37.7778 21.1096V32.2205C37.7778 32.8098 37.5437 33.375 37.127 33.7918C36.7102 34.2085 36.145 34.4426 35.5556 34.4426C34.9663 34.4426 34.4011 34.2085 33.9843 33.7918C33.5676 33.375 33.3335 32.8098 33.3335 32.2205V21.1096C33.3335 20.5202 33.5676 19.955 33.9843 19.5383C34.4011 19.1215 34.9663 18.8874 35.5556 18.8874ZM44.4444 18.8874C45.0337 18.8874 45.5989 19.1215 46.0157 19.5383C46.4324 19.955 46.6665 20.5202 46.6665 21.1096V32.2205C46.6665 32.8098 46.4324 33.375 46.0157 33.7918C45.5989 34.2085 45.0337 34.4426 44.4444 34.4426C43.855 34.4426 43.2898 34.2085 42.873 33.7918C42.4563 33.375 42.2222 32.8098 42.2222 32.2205V21.1096C42.2222 20.5202 42.4563 19.955 42.873 19.5383C43.2898 19.1215 43.855 18.8874 44.4444 18.8874Z" fill="#053B45"/>
<path d="M37.7778 22.2207H42.2222V28.8872H37.7778V22.2207Z" fill="#053B45"/>
</svg>
