<svg width="80" height="54" viewBox="0 0 80 54" fill="none" xmlns="http://www.w3.org/2000/svg">
<path d="M35.6222 0C23.255 0 15.419 8.76895 12.4071 18.7106L12.0073 20.0433H3.33167C2.44805 20.0433 1.60063 20.3943 0.975823 21.0191C0.351015 21.6439 0 22.4914 0 23.375C0 27.9394 1.26603 32.2239 3.47826 35.4556C4.25787 36.5884 5.18407 37.6345 6.24354 38.5074L4.25121 43.3383C3.79594 44.4457 3.62042 45.6481 3.74017 46.8394C3.85992 48.0306 4.27125 49.1741 4.93781 50.1687C5.60437 51.1632 6.50564 51.9783 7.56198 52.5419C8.61833 53.1054 9.79722 53.4002 10.9945 53.4H18.1443C20.9695 53.4 23.5416 51.7741 24.741 49.2154L26.7666 44.9175C32.8406 45.7019 38.9902 45.7019 45.0641 44.9175L47.0831 49.2154C48.2825 51.7741 50.8612 53.4066 53.6798 53.4066H60.763C61.9625 53.4094 63.1442 53.1158 64.2029 52.5519C65.2617 51.9881 66.1649 51.1715 66.8321 50.1746C67.4993 49.1777 67.9099 48.0315 68.0276 46.8377C68.1452 45.6439 67.9661 44.4396 67.5062 43.3317L66.1603 40.0666H72.5904C76.7016 40.0666 80 36.575 80 32.5237V28.3925C80 22.1289 75.1091 16.7316 68.739 16.7316H58.9838C55.4256 7.50292 47.0365 0.00666444 35.6222 0.00666444V0ZM63.9014 33.4033L61.0162 23.4016H68.739C71.1178 23.4016 73.3367 25.4939 73.3367 28.3991V32.5304C73.3332 32.7732 73.2352 33.0051 73.0635 33.1767C72.8769 33.3633 72.697 33.41 72.5904 33.41H63.9014V33.4033ZM51.8607 43.7048C54.4461 43.1118 57.0115 42.3721 59.5436 41.4926L61.3493 45.8704C61.3888 45.9656 61.4042 46.0692 61.3941 46.1718C61.3839 46.2744 61.3486 46.3729 61.2913 46.4586C61.2339 46.5443 61.1563 46.6145 61.0653 46.663C60.9743 46.7115 60.8727 46.7368 60.7696 46.7366H53.6932C53.5732 46.7378 53.4554 46.7045 53.3539 46.6408C53.2523 46.577 53.1711 46.4854 53.1201 46.3768L51.8607 43.7048V43.7048ZM12.2339 41.4793C14.7859 42.3721 17.3713 43.1118 19.9833 43.7115L18.7173 46.3768C18.6677 46.4856 18.588 46.5779 18.4877 46.6428C18.3873 46.7078 18.2705 46.7426 18.1509 46.7433H10.9945C10.8914 46.7435 10.7898 46.7182 10.6988 46.6697C10.6078 46.6212 10.5302 46.551 10.4728 46.4653C10.4155 46.3796 10.3802 46.2811 10.3701 46.1785C10.3599 46.0758 10.3753 45.9723 10.4148 45.8771L12.2272 41.4793H12.2339ZM9.995 26.7066L8.64901 31.1711C7.8404 29.7902 7.27681 28.2797 6.98318 26.7066H9.995Z" fill="#383838"/>
</svg>
