<svg width="80" height="80" viewBox="0 0 80 80" fill="none" xmlns="http://www.w3.org/2000/svg">
<path d="M20.9193 79.9939H15.0969C12.1547 79.9952 9.2763 79.1363 6.81586 77.5231C4.35543 75.9098 2.42027 73.6124 1.24847 70.9137C0.0766842 68.2149 -0.28062 65.2325 0.220523 62.3333C0.721667 59.4341 2.0594 56.7446 4.06912 54.5958L8.62306 49.7105C10.8218 47.3542 12.0198 44.2363 11.9643 41.014C11.9089 37.7916 10.6044 34.7167 8.32594 32.4375L3.852 27.9636C3.33159 27.4248 3.04362 26.7031 3.05013 25.954C3.05664 25.2049 3.3571 24.4884 3.8868 23.9587C4.4165 23.429 5.13305 23.1285 5.88212 23.122C6.6312 23.1155 7.35287 23.4035 7.89169 23.9239L12.3599 28.3978C15.6852 31.7244 17.589 36.212 17.67 40.9149C17.751 45.6177 16.0029 50.1683 12.7942 53.6073L8.24023 58.4927C6.99481 59.8294 6.16649 61.5005 5.85682 63.301C5.54716 65.1016 5.76961 66.9533 6.4969 68.6293C7.22419 70.3053 8.42472 71.7327 9.9513 72.7364C11.4779 73.7401 13.2642 74.2766 15.0911 74.28H17.9652C17.9538 73.1144 17.9595 71.6517 18.0109 69.9832C18.1595 65.6407 18.6394 59.7954 20.0108 53.9045C21.3821 48.0478 23.6791 41.9168 27.6102 37.1972C31.1128 32.9918 35.8724 29.9691 42.1348 29.2663V12.4905C42.1393 9.1782 43.4575 6.00297 45.8002 3.66137C48.1429 1.31977 51.3187 0.00302319 54.631 0C57.5336 0 59.8877 2.35982 59.8877 5.26817V8.02796H66.6129C70.384 8.02796 73.8752 9.97638 75.8636 13.1818L78.3492 17.193C82.6974 24.2153 77.9606 33.2146 69.9212 33.7917V71.1146C69.9212 76.017 65.9501 79.9939 61.0476 79.9939H57.8879V71.1146C57.8886 69.1579 57.5039 67.2203 56.7556 65.4124C56.0074 63.6044 54.9102 61.9616 53.5269 60.5778C52.1437 59.194 50.5013 58.0962 48.6936 57.3473C46.886 56.5983 44.9485 56.2128 42.9919 56.2128H37.9751C37.2174 56.2128 36.4907 56.5138 35.955 57.0496C35.4192 57.5854 35.1182 58.3121 35.1182 59.0698C35.1182 59.8275 35.4192 60.5541 35.955 61.0899C36.4907 61.6257 37.2174 61.9267 37.9751 61.9267H42.9919C48.06 61.9267 52.174 66.0407 52.174 71.1146V79.9939H20.9193Z" fill="#383838"/>
</svg>
