<svg width="80" height="76" viewBox="0 0 80 76" fill="none" xmlns="http://www.w3.org/2000/svg">
<path d="M77.2129 37.8689L79.664 41.9022C80.2773 42.9177 80.0262 44.2755 79.1129 44.9621C77.6262 45.4243 75.5174 46.7354 74.4396 44.9488C71.713 40.4644 70.0263 39.3377 67.9997 37.6644L73.013 59.9419L67.9997 75.5528H56.6665C56.6665 70.2306 60.0176 71.6951 60.3909 71.5128L60.422 71.4795C61.5554 67.6196 67.9997 68.8862 64.5198 59.9419C64.7709 57.4086 60.422 57.7753 59.1109 54.0198C57.7998 50.2643 51.2333 57.0353 48.56 57.7753C43.3334 61.1085 38.129 61.6263 33.2713 56.242C30.5514 58.5375 31.7602 62.6952 32.0002 68.8862C32.1469 72.6684 31.0469 75.5528 31.0469 75.5528H20.0004C20.0004 69.9973 24.0003 71.4795 24.0003 71.4795L26.2225 65.464L24.0003 50.5598L17.7782 33.1467L12.4872 40.4888C12.1327 40.8893 11.6982 41.2109 11.2117 41.433C10.7252 41.655 10.1975 41.7724 9.66276 41.7777H5.78726C4.27617 41.7777 2.8873 40.8333 2.20953 39.3511L0.422891 35.4267C0.0899082 34.6918 -0.0501516 33.8841 0.015951 33.08C0.0820536 32.2758 0.352135 31.5019 0.800663 30.8312L10.125 17.2092C10.3361 16.8936 10.6494 16.7025 10.925 16.4692C10.425 16.167 9.92498 15.8914 9.51165 15.4403C7.46279 13.1892 7.21168 3.04048 8.74944 0.487185C8.82417 0.354298 8.9296 0.241221 9.05695 0.157397C9.18429 0.0735734 9.32984 0.0214361 9.48144 0.00534042C9.63305 -0.0107552 9.7863 0.00965844 9.92841 0.0648753C10.0705 0.120092 10.1973 0.208509 10.2983 0.322743C15.7404 6.27821 15.556 16.4692 21.8493 17.4692L32.0002 28.609H61.4509C67.8019 28.609 73.6885 32.0667 77.2129 37.8689V37.8689Z" fill="#383838"/>
</svg>
