<svg width="80" height="86" viewBox="0 0 80 86" fill="none" xmlns="http://www.w3.org/2000/svg">
<path fill-rule="evenodd" clip-rule="evenodd" d="M29.1427 81.4618H50.293V85.9145H29.1427V81.4618Z" fill="#383838"/>
<path fill-rule="evenodd" clip-rule="evenodd" d="M42.5008 72.5564C43.0912 72.5564 43.6575 72.791 44.075 73.2085C44.4925 73.626 44.7271 74.1923 44.7271 74.7828V83.6882C44.7271 84.2786 44.4925 84.8449 44.075 85.2624C43.6575 85.6799 43.0912 85.9145 42.5008 85.9145C41.9103 85.9145 41.344 85.6799 40.9265 85.2624C40.509 84.8449 40.2744 84.2786 40.2744 83.6882V74.7828C40.2744 74.1923 40.509 73.626 40.9265 73.2085C41.344 72.791 41.9103 72.5564 42.5008 72.5564Z" fill="#383838"/>
<path fill-rule="evenodd" clip-rule="evenodd" d="M40.7196 77.0091C49.7497 77.0091 57.9738 73.6162 64.1697 68.0481C60.4552 69.5616 56.4813 70.3367 52.4703 70.3301C35.9797 70.3301 22.4636 57.4529 22.4636 41.3876C22.4636 40.7971 22.6981 40.2308 23.1156 39.8133C23.5332 39.3958 24.0994 39.1612 24.6899 39.1612C25.2804 39.1612 25.8467 39.3958 26.2642 39.8133C26.6817 40.2308 26.9163 40.7971 26.9163 41.3876C26.9163 54.8325 38.2751 65.8774 52.4703 65.8774C60.3181 65.8774 67.32 62.4911 71.9998 57.1835C72.1414 57.0211 72.3065 56.8808 72.4896 56.7672C73.6027 54.3405 74.4421 51.7623 74.9675 49.0751C75.789 44.8629 77.0024 40.6507 79.5938 37.231C80.6692 35.8128 79.4602 33.8113 77.7059 34.1007L48.5074 38.9163C46.2312 39.2918 43.8946 38.9509 41.8206 37.9406C39.7467 36.9304 38.0378 35.3007 36.9304 33.277L26.7693 14.7093C25.7571 12.8634 24.1057 11.4507 22.1253 10.7366C20.1449 10.0226 17.972 10.0562 16.0147 10.8313C14.0574 11.6064 12.4505 13.0696 11.496 14.9459C10.5414 16.8222 10.3049 18.9826 10.8309 21.021L11.6057 24.0109C12.4013 27.0825 12.3883 30.3077 11.5678 33.3727L9.87358 39.7C7.90994 47.0314 7.34667 55.0885 11.5433 61.4136C14.74 66.2213 19.0781 70.162 24.1698 72.8835C29.2616 75.605 34.9484 77.0225 40.7218 77.0091H40.7196ZM18.0109 19.1241C18.6013 19.1241 19.1676 18.8896 19.5851 18.472C20.0027 18.0545 20.2372 17.4882 20.2372 16.8978C20.2372 16.3073 20.0027 15.741 19.5851 15.3235C19.1676 14.906 18.6013 14.6714 18.0109 14.6714C17.4204 14.6714 16.8541 14.906 16.4366 15.3235C16.0191 15.741 15.7845 16.3073 15.7845 16.8978C15.7845 17.4882 16.0191 18.0545 16.4366 18.472C16.8541 18.8896 17.4204 19.1241 18.0109 19.1241V19.1241Z" fill="#383838"/>
<path fill-rule="evenodd" clip-rule="evenodd" d="M20.4288 1.31337C23.234 -1.49183 28.0295 0.494071 28.0295 4.46142V7.9924H31.0796C35.1739 7.9924 37.0974 13.0529 34.0362 15.7735L28.3946 20.7872C27.9514 21.1664 27.3771 21.3565 26.7952 21.3166C26.2133 21.2767 25.6703 21.0101 25.2829 20.574C24.8955 20.1379 24.6948 19.5673 24.7238 18.9847C24.7528 18.4022 25.0093 17.8543 25.4381 17.4588L31.0796 12.4451H28.0295C26.8486 12.4451 25.716 11.976 24.881 11.1409C24.0459 10.3059 23.5768 9.17333 23.5768 7.9924V4.46142L4.46142 23.5768H12.4451C13.0356 23.5768 13.6018 23.8114 14.0194 24.2289C14.4369 24.6464 14.6714 25.2127 14.6714 25.8032C14.6714 26.3936 14.4369 26.9599 14.0194 27.3774C13.6018 27.795 13.0356 28.0295 12.4451 28.0295H4.46142C0.494071 28.0295 -1.49183 23.234 1.31337 20.4288L20.4288 1.31337Z" fill="#383838"/>
</svg>
